Coordinates
version=1
nRows=24
nColumns=24
inDegrees=yes

Units are S.I. units (second, meters, Newtons, ...)
Angles are in degrees.

endheader
time	pelvis_tilt	pelvis_list	pelvis_rotation	pelvis_tx	pelvis_ty	pelvis_tz	hip_flexion_r	hip_adduction_r	hip_rotation_r	knee_angle_r	ankle_angle_r	subtalar_angle_r	mtp_angle_r	hip_flexion_l	hip_adduction_l	hip_rotation_l	knee_angle_l	ankle_angle_l	subtalar_angle_l	mtp_angle_l	lumbar_extension	lumbar_bending	lumbar_rotation
      1.78000000	     71.58418127	      1.34085031	     -1.78111863	      0.53206979	      0.96398095	     -0.30133740	     -1.04990180	    -16.33758698	     -8.69766999	    -67.38214413	    -26.00195618	      0.00000000	      0.00000000	     12.72726243	     -3.71199233	     11.24451425	    -11.17070191	    -41.69111353	      0.00000000	      0.00000000	      0.00000000	      0.00000000	      0.00000000
      1.79000000	     71.58798760	      1.34738059	     -1.77473520	      0.53205642	      0.96399170	     -0.30132494	     -1.05984246	    -16.34962966	     -8.71762418	    -67.38123686	    -25.94639652	      0.00000000	      0.00000000	     12.73003105	     -3.70586818	     11.24862033	    -11.16150251	    -41.70571630	      0.00000000	      0.00000000	      0.00000000	      0.00000000	      0.00000000
      1.80000000	     71.58831858	      1.35511122	     -1.76765732	      0.53203899	      0.96401209	     -0.30132168	     -1.06360016	    -16.36119183	     -8.72779104	    -67.38155442	    -25.90700134	      0.00000000	      0.00000000	     12.74021075	     -3.69635776	     11.25178976	    -11.15126219	    -41.73148511	      0.00000000	      0.00000000	      0.00000000	      0.00000000	      0.00000000
      1.81000000	     71.58276937	      1.36502208	     -1.76212866	      0.53202662	      0.96401742	     -0.30132525	     -1.05974451	    -16.37116832	     -8.72984704	    -67.38304471	    -25.88498918	      0.00000000	      0.00000000	     12.75691326	     -3.68477539	     11.25252088	    -11.14202550	    -41.76806067	      0.00000000	      0.00000000	      0.00000000	      0.00000000	      0.00000000
      1.82000000	     71.57117148	      1.37693216	     -1.75926745	      0.53202103	      0.96399622	     -0.30133087	     -1.04804840	    -16.37959652	     -8.72604426	    -67.38543730	    -25.87793434	      0.00000000	      0.00000000	     12.77890241	     -3.67239108	     11.24981858	    -11.13472286	    -41.81335682	      0.00000000	      0.00000000	      0.00000000	      0.00000000	      0.00000000
      1.83000000	     71.55688189	      1.38872927	     -1.76015760	      0.53200828	      0.96398381	     -0.30131649	     -1.02982472	    -16.38656250	     -8.71846830	    -67.38863095	    -25.88183116	      0.00000000	      0.00000000	     12.80630942	     -3.65865505	     11.24380625	    -11.12798539	    -41.86377449	      0.00000000	      0.00000000	      0.00000000	      0.00000000	      0.00000000
      1.84000000	     71.54298179	      1.39864403	     -1.76500633	      0.53197937	      0.96399286	     -0.30128485	     -1.00738186	    -16.39211666	     -8.70868050	    -67.39277199	    -25.89276108	      0.00000000	      0.00000000	     12.83722609	     -3.64361611	     11.23580314	    -11.12026206	    -41.91474290	      0.00000000	      0.00000000	      0.00000000	      0.00000000	      0.00000000
      1.85000000	     71.53000497	      1.40676861	     -1.77242829	      0.53194372	      0.96399176	     -0.30126433	     -0.98325290	    -16.39659585	     -8.69772902	    -67.39805855	    -25.90778593	      0.00000000	      0.00000000	     12.86607214	     -3.62968832	     11.22791558	    -11.11155104	    -41.96163051	      0.00000000	      0.00000000	      0.00000000	      0.00000000	      0.00000000
      1.86000000	     71.51827164	      1.41390911	     -1.78059023	      0.53191584	      0.96397244	     -0.30125521	     -0.96001203	    -16.40047928	     -8.68651533	    -67.40443857	    -25.92506190	      0.00000000	      0.00000000	     12.88730197	     -3.61974452	     11.22233981	    -11.10238091	    -42.00088423	      0.00000000	      0.00000000	      0.00000000	      0.00000000	      0.00000000
      1.87000000	     71.50930049	      1.42049086	     -1.78827632	      0.53190210	      0.96395320	     -0.30124057	     -0.94045849	    -16.40419468	     -8.67604476	    -67.41132543	    -25.94326792	      0.00000000	      0.00000000	     12.89841786	     -3.61504485	     11.22052735	    -11.09277279	    -42.03098925	      0.00000000	      0.00000000	      0.00000000	      0.00000000	      0.00000000
      1.88000000	     71.50495840	      1.42616394	     -1.79482912	      0.53189810	      0.96394144	     -0.30122217	     -0.92749226	    -16.40807120	     -8.66743220	    -67.41758633	    -25.96066569	      0.00000000	      0.00000000	     12.89989987	     -3.61440839	     11.22248659	    -11.08254069	    -42.05277518	      0.00000000	      0.00000000	      0.00000000	      0.00000000	      0.00000000
      1.89000000	     71.50664161	      1.43013949	     -1.79975680	      0.53189306	      0.96393571	     -0.30121114	     -0.92350831	    -16.41205828	     -8.66194803	    -67.42194725	    -25.97431219	      0.00000000	      0.00000000	     12.89391986	     -3.61445485	     11.22671663	    -11.07193579	    -42.06883491	      0.00000000	      0.00000000	      0.00000000	      0.00000000	      0.00000000
      1.90000000	     71.51486910	      1.43248601	     -1.80240539	      0.53187847	      0.96393531	     -0.30120867	     -0.92971512	    -16.41562661	     -8.66093719	    -67.42352291	    -25.97984862	      0.00000000	      0.00000000	     12.88279199	     -3.61148919	     11.23100166	    -11.06191848	    -42.08220089	      0.00000000	      0.00000000	      0.00000000	      0.00000000	      0.00000000
      1.91000000	     71.52916836	      1.43464596	     -1.80193050	      0.53185185	      0.96394019	     -0.30120672	     -0.94582449	    -16.41833943	     -8.66540176	    -67.42207564	    -25.97215159	      0.00000000	      0.00000000	     12.86801690	     -3.60377293	     11.23352429	    -11.05383530	    -42.09475757	      0.00000000	      0.00000000	      0.00000000	      0.00000000	      0.00000000
      1.92000000	     71.54822241	      1.43829136	     -1.79791073	      0.53181700	      0.96394816	     -0.30120487	     -0.97017318	    -16.42048270	     -8.67557274	    -67.41791462	    -25.94704090	      0.00000000	      0.00000000	     12.85038757	     -3.59245157	     11.23352500	    -11.04875202	    -42.10604372	      0.00000000	      0.00000000	      0.00000000	      0.00000000	      0.00000000
      1.93000000	     71.57017047	      1.44348275	     -1.79129713	      0.53178201	      0.96395093	     -0.30121189	     -0.99998196	    -16.42292212	     -8.69070634	    -67.41165277	    -25.90391894	      0.00000000	      0.00000000	     12.83077137	     -3.58075350	     11.23120915	    -11.04692549	    -42.11298227	      0.00000000	      0.00000000	      0.00000000	      0.00000000	      0.00000000
      1.94000000	     71.59294606	      1.44761078	     -1.78483124	      0.53175267	      0.96394456	     -0.30122465	     -1.03138075	    -16.42620391	     -8.70887507	    -67.40409596	    -25.84865751	      0.00000000	      0.00000000	     12.81074626	     -3.57249554	     11.22721246	    -11.04785394	    -42.11072648	      0.00000000	      0.00000000	      0.00000000	      0.00000000	      0.00000000
      1.95000000	     71.61418323	      1.44655555	     -1.78243166	      0.53173017	      0.96394259	     -0.30122404	     -1.05922440	    -16.42936025	     -8.72653069	    -67.39639243	    -25.79556985	      0.00000000	      0.00000000	     12.79222450	     -3.57138010	     11.22223470	    -11.05112874	    -42.09440203	      0.00000000	      0.00000000	      0.00000000	      0.00000000	      0.00000000
      1.96000000	     71.63058162	      1.43749528	     -1.78769653	      0.53171698	      0.96396063	     -0.30120019	     -1.07729966	    -16.42902236	     -8.73786634	    -67.39029932	    -25.76714736	      0.00000000	      0.00000000	     12.77635075	     -3.58090033	     11.21711368	    -11.05745046	    -42.06114832	      0.00000000	      0.00000000	      0.00000000	      0.00000000	      0.00000000
      1.97000000	     71.63800722	      1.42076763	     -1.80208382	      0.53172199	      0.96398412	     -0.30117669	     -1.07937522	    -16.41972737	     -8.73440688	    -67.38815385	    -25.79058787	      0.00000000	      0.00000000	     12.76344383	     -3.60348122	     11.21301176	    -11.06846271	    -42.01169396	      0.00000000	      0.00000000	      0.00000000	      0.00000000	      0.00000000
      1.98000000	     71.63360312	      1.39879164	     -1.82343019	      0.53175240	      0.96397276	     -0.30119564	     -1.06071899	    -16.39627495	     -8.70563865	    -67.39217249	    -25.89106444	      0.00000000	      0.00000000	     12.75500342	     -3.63879862	     11.21125301	    -11.08496434	    -41.95081933	      0.00000000	      0.00000000	      0.00000000	      0.00000000	      0.00000000
      1.99000000	     71.61844283	      1.37290100	     -1.84554401	      0.53179452	      0.96391788	     -0.30125565	     -1.01919762	    -16.35753256	     -8.64161167	    -67.40321502	    -26.08308791	      0.00000000	      0.00000000	     12.75560703	     -3.68295382	     11.21272942	    -11.10513922	    -41.88639820	      0.00000000	      0.00000000	      0.00000000	      0.00000000	      0.00000000
      2.00000000	     71.59680405	      1.34226846	     -1.86009983	      0.53181873	      0.96386459	     -0.30128793	     -0.95564492	    -16.30857623	     -8.53805738	    -67.41983962	    -26.36278093	      0.00000000	      0.00000000	     12.77076490	     -3.73028349	     11.21722775	    -11.12527751	    -41.82724801	      0.00000000	      0.00000000	      0.00000000	      0.00000000	      0.00000000
      2.01000000	     71.57199524	      1.30708793	     -1.86191987	      0.53181219	      0.96384643	     -0.30123819	     -0.87431015	    -16.25810850	     -8.40251256	    -67.43860381	    -26.70461918	      0.00000000	      0.00000000	     12.80196004	     -3.77631105	     11.22321821	    -11.14248088	    -41.78058660	      0.00000000	      0.00000000	      0.00000000	      0.00000000	      0.00000000
